PathFileType	4	(X/Y/Z)	3_coords_data.trc
DataRate	CameraRate	NumFrames	NumMarkers	Units	OrigDataRate	OrigDataStartFrame	OrigNumFrames
30.0	30.0	7	21	m	30.0	1	71
Frame#	Time	THUMB_TIP	THUMB_IP	THUMB_MCP	THUMB_CMC	INDEX_TIP	INDEX_DIP	INDEX_PIP	INDEX_MCP	MIDDLE_TIP	MIDDLE_DIP	MIDDLE_PIP	MIDDLE_MCP	RING_TIP	RING_DIP	RING_PIP	RING_MCP	PINKY_TIP	PINKY_DIP	PINKY_PIP	PINKY_MCP	WRIST
X1	Y1	Z1	X2	Y2	Z2	X3	Y3	Z3	X4	Y4	Z4	X5	Y5	Z5	X6	Y6	Z6	X7	Y7	Z7	X8	Y8	Z8	X9	Y9	Z9	X10	Y10	Z10	X11	Y11	Z11	X12	Y12	Z12	X13	Y13	Z13	X14	Y14	Z14	X15	Y15	Z15	X16	Y16	Z16	X17	Y17	Z17	X18	Y18	Z18	X19	Y19	Z19	X20	Y20	Z20	X21	Y21	Z21
0	0.0	-0.09525489807128906	-0.07149610137939454	0.98089697265625	-0.12205699920654296	-0.07377619934082032	0.9732639770507813	-0.14120399475097656	-0.05826750183105469	0.9815869750976562	-0.13218400573730468	-0.03380970001220703	0.997864990234375	-0.13268299865722658	-0.11651300048828125	0.9072169799804688	-0.13125199890136718	-0.09755470275878907	0.9157940063476563	-0.13103599548339845	-0.07512079620361328	0.9268569946289062	-0.12879400634765625	-0.03721860122680664	0.946375	-0.11479100036621094	-0.060883499145507815	0.9637410278320313	-0.10865499877929688	-0.08097219848632813	0.9559559936523437	-0.1051510009765625	-0.07262120056152344	0.9301370239257812	-0.10562899780273438	-0.03209759902954101	0.9433779907226563	-0.0982030029296875	-0.05788240051269531	0.974781005859375	-0.0891417007446289	-0.07481649780273437	0.9637639770507812	-0.08287909698486329	-0.06900779724121094	0.943666015625	-0.08918789672851563	-0.03229769897460937	0.9570120239257812	-0.04123830032348633	-0.09085089874267578	0.9473389892578125	-0.05147409820556641	-0.07373960113525391	0.9546420288085937	-0.061001598358154295	-0.05802320098876953	0.9626199951171875	-0.0775416030883789	-0.03738679885864258	0.9772470092773438	-0.12397499847412109	0.0008297290205955501	1.02352001953125
1	0.03333333333333333	-0.09749639892578126	-0.07295110321044922	0.9806380004882812	-0.1193270034790039	-0.07463700103759766	0.9742930297851562	-0.14074600219726563	-0.057080299377441406	0.9815449829101562	-0.13252699279785157	-0.03222760009765625	0.9995570068359375	-0.13071299743652343	-0.11654199981689453	0.9069609985351562	-0.13098399353027343	-0.09656379699707031	0.9163729858398437	-0.1307729949951172	-0.0747761001586914	0.9266110229492187	-0.12866000366210936	-0.03751969909667969	0.9443040161132813	-0.11430899810791016	-0.06195339965820312	0.9685759887695312	-0.1082750015258789	-0.07899430084228516	0.957530029296875	-0.10510700225830077	-0.07327420043945312	0.9327689819335937	-0.10561100006103516	-0.033131500244140626	0.9440540161132812	-0.1009739990234375	-0.06047109985351563	0.9781019897460937	-0.091502197265625	-0.07379090118408203	0.964948974609375	-0.08237989807128906	-0.06929810333251953	0.9440599975585937	-0.08815779876708985	-0.032898200988769534	0.955823974609375	-0.040829299926757816	-0.09031169891357421	0.9469199829101562	-0.04994269943237305	-0.07409709930419922	0.9543419799804688	-0.06038180160522461	-0.059340499877929685	0.9614010009765624	-0.07799259948730469	-0.0378202018737793	0.9745800170898438	-0.12335099792480468	0.001670189976692199	1.024739990234375
2	0.06666666666666667	-0.09796209716796875	-0.07281240081787109	0.9810679931640625	-0.11935800170898438	-0.07486499786376953	0.9739910278320313	-0.1399739990234375	-0.05724399948120117	0.9818389892578125	-0.1335189971923828	-0.03225619888305664	0.9997949829101562	-0.13041600036621093	-0.1166999969482422	0.9070440063476563	-0.13072900390625	-0.09664320373535157	0.9163900146484375	-0.13063800048828125	-0.0748647003173828	0.9267150268554688	-0.12849000549316406	-0.03763420104980469	0.9442369995117188	-0.1136449966430664	-0.06281639862060547	0.969052001953125	-0.10773799896240234	-0.07934230041503906	0.9575540161132813	-0.10488099670410156	-0.07339759826660157	0.9327100219726563	-0.10545099639892579	-0.03326210021972656	0.9439849853515625	-0.10061900329589844	-0.06018650054931641	0.9779550170898438	-0.09144309997558593	-0.07365869903564454	0.965385009765625	-0.08233080291748048	-0.06935250091552735	0.9443159790039063	-0.0879094009399414	-0.03292940139770508	0.9557589721679688	-0.04061899948120117	-0.090279296875	0.9469819946289062	-0.04976679992675781	-0.07403050231933593	0.9544080200195313	-0.06024280166625977	-0.059393600463867186	0.9614580078125	-0.07815270233154296	-0.03765530014038086	0.9747930297851563	-0.12334400177001953	0.001752480030059814	1.0255699462890624
3	0.1	-0.09751270294189453	-0.07296299743652344	0.9808670043945312	-0.11935399627685547	-0.0749386978149414	0.9740159912109375	-0.1402779998779297	-0.05754600143432617	0.9812689819335938	-0.13324600219726562	-0.032798900604248046	0.9999010009765625	-0.13030599975585938	-0.11696900177001954	0.90718798828125	-0.13059500122070314	-0.09696420288085937	0.9164390258789062	-0.13056700134277344	-0.0751322021484375	0.9265880126953125	-0.12849600219726562	-0.037786800384521486	0.9443079833984375	-0.11361900329589844	-0.06281549835205077	0.9692730102539062	-0.10770800018310547	-0.07913710021972656	0.9579000244140625	-0.1047490005493164	-0.07349299621582031	0.9327689819335937	-0.10548100280761719	-0.033444400787353515	0.9440980224609375	-0.10016300201416016	-0.06057559967041016	0.977405029296875	-0.09126460266113282	-0.07402870178222656	0.9651170043945313	-0.08213179779052734	-0.06952469635009766	0.9443699951171876	-0.08777570343017578	-0.032850399017333984	0.9557589721679688	-0.040508899688720706	-0.09037319946289063	0.9470339965820312	-0.04962990188598633	-0.074143798828125	0.9544429931640624	-0.060074501037597657	-0.05950329971313477	0.96139697265625	-0.07778949737548828	-0.03797420120239258	0.9745830078125	-0.12286100006103516	0.001086850047111511	1.0246500244140626
4	0.13333333333333333	-0.09727449798583984	-0.07333100128173828	0.9800700073242188	-0.11928199768066407	-0.07508180236816406	0.9742979736328125	-0.14013699340820313	-0.057742698669433594	0.9815399780273437	-0.13334700012207032	-0.03280089950561523	0.9998829956054688	-0.13035400390625	-0.11713899993896484	0.9072150268554687	-0.13063299560546876	-0.09716829681396484	0.9164539794921875	-0.130531005859375	-0.07528829956054688	0.9267529907226563	-0.12844700622558594	-0.03796630096435547	0.944260009765625	-0.11369699859619141	-0.06257509994506837	0.9690560302734375	-0.10751000213623046	-0.0795251007080078	0.95777099609375	-0.10488099670410156	-0.07367559814453126	0.9328519897460937	-0.10558899688720703	-0.03371009826660156	0.9440700073242188	-0.10043900299072266	-0.06094499969482422	0.9779340209960937	-0.09132830047607422	-0.07411609649658203	0.9652000122070312	-0.08202970123291016	-0.0696176986694336	0.9439429931640625	-0.08800409698486328	-0.03325009918212891	0.9557369995117188	-0.040509700775146484	-0.09048490142822266	0.946926025390625	-0.04966619873046875	-0.0742686996459961	0.9544010009765626	-0.060154899597167966	-0.05956610107421875	0.9614199829101563	-0.07788780212402344	-0.03800749969482422	0.9745780029296875	-0.12304599761962891	0.001162549972534179	1.0244599609375
5	0.16666666666666666	-0.0973469009399414	-0.07313639831542969	0.9804600219726562	-0.11931500244140625	-0.07523069763183594	0.9739719848632813	-0.138697998046875	-0.0579723014831543	0.9820830078125	-0.13372700500488283	-0.033041400909423826	0.999968994140625	-0.13036099243164062	-0.1172959976196289	0.90714697265625	-0.13071400451660156	-0.09728130340576172	0.916510986328125	-0.13063299560546876	-0.07550440216064454	0.9267210083007813	-0.12851100158691406	-0.038060699462890625	0.944155029296875	-0.1141510009765625	-0.06294720077514648	0.9687269897460937	-0.10771199798583984	-0.07979149627685547	0.9574359741210937	-0.10498400115966797	-0.073777099609375	0.9326950073242187	-0.10559300231933594	-0.03382440185546875	0.9441010131835937	-0.10041100311279297	-0.06151910018920898	0.9776510009765625	-0.09119120025634765	-0.07417500305175781	0.9651610107421875	-0.08229299926757813	-0.06983159637451172	0.9442639770507812	-0.08796620178222657	-0.033058700561523435	0.9556480102539062	-0.040570899963378905	-0.0905728988647461	0.946822998046875	-0.04972639846801758	-0.07434829711914062	0.9542830200195312	-0.06011859893798828	-0.05984960174560547	0.9612420043945312	-0.07796440124511719	-0.038240100860595705	0.9746170043945312	-0.12308000183105469	0.0008713859915733331	1.0244000244140625
6	0.2	-0.09831060028076172	-0.07302899932861329	0.980926025390625	-0.119697998046875	-0.07523419952392578	0.9740020141601563	-0.14012300109863282	-0.05805030059814453	0.981885009765625	-0.13321099853515625	-0.033073101043701175	0.9992429809570312	-0.13040800476074219	-0.11747200012207032	0.907156005859375	-0.13072000122070312	-0.09753990173339844	0.91639501953125	-0.1306999969482422	-0.07563520050048828	0.9268070068359375	-0.1286999969482422	-0.038287799835205076	0.944114013671875	-0.11389099884033203	-0.06305020141601562	0.969406005859375	-0.10787599945068359	-0.07927690124511719	0.9579650268554688	-0.10499299621582031	-0.0739209976196289	0.9326259765625	-0.10568599700927735	-0.033883800506591795	0.9438179931640625	-0.10023100280761718	-0.06177170181274414	0.9773480224609375	-0.09131020355224609	-0.07431900024414062	0.9647880249023437	-0.08235870361328125	-0.0698656997680664	0.9441300048828125	-0.08800379943847657	-0.03324549865722656	0.9554520263671875	-0.040644100189208984	-0.09064330291748048	0.9467639770507813	-0.04979349899291992	-0.07442549896240234	0.9541190185546875	-0.06028110122680664	-0.05970769882202148	0.961125	-0.07823799896240234	-0.03802930068969727	0.9746699829101563	-0.12312899780273437	0.0009014819860458371	1.02422998046875
